<!--
  RMC icon set. Lucide-style 24x24 stroke geometry, one symbol per concept in
  a ready-mix plant. Each carries its own stroke colour so the desk sidebar,
  shortcuts and doctype lists read at a glance instead of sharing one glyph.
-->
<svg id="frappe-symbols" aria-hidden="true" style="display: none;" xmlns="http://www.w3.org/2000/svg">

	<!-- transit mixer: cab, drum, wheels -->
	<symbol viewBox="0 0 24 24" id="icon-rmc-mixer" fill="none" stroke="#2563EB" stroke-width="1.6" stroke-linecap="round" stroke-linejoin="round">
		<path d="M2 16V9h4l2-3h3v10"/>
		<ellipse cx="16" cy="11" rx="5" ry="4.5"/>
		<path d="M13 8.5 19 13.5M13 13.5 19 8.5"/>
		<circle cx="6" cy="18" r="2"/>
		<circle cx="17" cy="18" r="2"/>
		<path d="M8 18h7"/>
	</symbol>

	<!-- concrete pump: boom arm on a truck -->
	<symbol viewBox="0 0 24 24" id="icon-rmc-pump" fill="none" stroke="#7C3AED" stroke-width="1.6" stroke-linecap="round" stroke-linejoin="round">
		<path d="M2 17v-5h9v5"/>
		<circle cx="5" cy="19" r="1.8"/>
		<circle cx="14" cy="19" r="1.8"/>
		<path d="M7 19h5"/>
		<path d="M6 12 11 5l6 2 3 6"/>
		<path d="M20 13v5"/>
	</symbol>

	<!-- batching plant: silos over a mixer house -->
	<symbol viewBox="0 0 24 24" id="icon-rmc-plant" fill="none" stroke="#0F766E" stroke-width="1.6" stroke-linecap="round" stroke-linejoin="round">
		<path d="M4 3h5v8H4zM15 3h5v8h-5z"/>
		<path d="M4 11 6.5 15h11L20 11"/>
		<path d="M6.5 15v6h11v-6"/>
		<path d="M10 21v-4h4v4"/>
	</symbol>

	<!-- cement silo -->
	<symbol viewBox="0 0 24 24" id="icon-rmc-silo" fill="none" stroke="#475569" stroke-width="1.6" stroke-linecap="round" stroke-linejoin="round">
		<path d="M7 8h10v9H7z"/>
		<path d="M7 8 12 3l5 5"/>
		<path d="M10 17v4h4v-4"/>
		<path d="M7 11h10M7 14h10"/>
	</symbol>

	<!-- cement bag -->
	<symbol viewBox="0 0 24 24" id="icon-rmc-cement" fill="none" stroke="#64748B" stroke-width="1.6" stroke-linecap="round" stroke-linejoin="round">
		<path d="M7 6c0-1 1-2 2.5-2h5C16 4 17 5 17 6l1.5 13a2 2 0 0 1-2 2h-9a2 2 0 0 1-2-2z"/>
		<path d="M9.5 4v3M14.5 4v3"/>
		<path d="M9 12h6"/>
	</symbol>

	<!-- sand pile -->
	<symbol viewBox="0 0 24 24" id="icon-rmc-sand" fill="none" stroke="#D97706" stroke-width="1.6" stroke-linecap="round" stroke-linejoin="round">
		<path d="M2 19h20"/>
		<path d="M4 19 10 8l6 11"/>
		<path d="M13 19l4-7 5 7"/>
	</symbol>

	<!-- coarse aggregate: three stones -->
	<symbol viewBox="0 0 24 24" id="icon-rmc-aggregate" fill="none" stroke="#78716C" stroke-width="1.6" stroke-linecap="round" stroke-linejoin="round">
		<path d="M3 18l2.5-4L10 16l-1.5 4z"/>
		<path d="M10 10l3.5-4 4 2.5L15 13z"/>
		<path d="M14 19l2-4 5 1-1 4z"/>
	</symbol>

	<!-- fly ash / powder flow -->
	<symbol viewBox="0 0 24 24" id="icon-rmc-flyash" fill="none" stroke="#94A3B8" stroke-width="1.6" stroke-linecap="round" stroke-linejoin="round">
		<path d="M6 4h12l-3 7H9z"/>
		<path d="M9 11l-2 9M15 11l2 9"/>
		<circle cx="12" cy="15" r="1"/>
		<circle cx="10" cy="19" r="1"/>
		<circle cx="14" cy="18" r="1"/>
	</symbol>

	<!-- admixture: chemical flask -->
	<symbol viewBox="0 0 24 24" id="icon-rmc-admixture" fill="none" stroke="#0891B2" stroke-width="1.6" stroke-linecap="round" stroke-linejoin="round">
		<path d="M9 3h6"/>
		<path d="M10 3v6l-5 9a2 2 0 0 0 1.8 3h10.4a2 2 0 0 0 1.8-3l-5-9V3"/>
		<path d="M7.5 15h9"/>
	</symbol>

	<!-- water drop -->
	<symbol viewBox="0 0 24 24" id="icon-rmc-water" fill="none" stroke="#0EA5E9" stroke-width="1.6" stroke-linecap="round" stroke-linejoin="round">
		<path d="M12 3s6 6.5 6 10.5A6 6 0 0 1 6 13.5C6 9.5 12 3 12 3z"/>
		<path d="M9.5 14a2.5 2.5 0 0 0 2.5 2.5"/>
	</symbol>

	<!-- concrete grade: a poured block with a tag -->
	<symbol viewBox="0 0 24 24" id="icon-rmc-grade" fill="none" stroke="#1D4ED8" stroke-width="1.6" stroke-linecap="round" stroke-linejoin="round">
		<path d="M3 9l9-4 9 4-9 4z"/>
		<path d="M3 9v6l9 4 9-4V9"/>
		<path d="M12 13v6"/>
	</symbol>

	<!-- mix design: recipe sheet with measures -->
	<symbol viewBox="0 0 24 24" id="icon-rmc-mix" fill="none" stroke="#059669" stroke-width="1.6" stroke-linecap="round" stroke-linejoin="round">
		<path d="M5 3h11l3 3v15H5z"/>
		<path d="M16 3v3h3"/>
		<path d="M8 11h8M8 14h8M8 17h5"/>
	</symbol>

	<!-- batch production: mixer drum turning -->
	<symbol viewBox="0 0 24 24" id="icon-rmc-batch" fill="none" stroke="#16A34A" stroke-width="1.6" stroke-linecap="round" stroke-linejoin="round">
		<ellipse cx="12" cy="12" rx="7" ry="6"/>
		<path d="M7 9l10 6M7 15l10-6"/>
		<path d="M12 2v2M12 20v2"/>
	</symbol>

	<!-- concrete order: clipboard with a tick -->
	<symbol viewBox="0 0 24 24" id="icon-rmc-order" fill="none" stroke="#B45309" stroke-width="1.6" stroke-linecap="round" stroke-linejoin="round">
		<path d="M9 3h6v3H9z"/>
		<path d="M15 4.5h3V21H6V4.5h3"/>
		<path d="M9 13l2 2 4-4"/>
	</symbol>

	<!-- delivery challan: document leaving on wheels -->
	<symbol viewBox="0 0 24 24" id="icon-rmc-challan" fill="none" stroke="#9333EA" stroke-width="1.6" stroke-linecap="round" stroke-linejoin="round">
		<path d="M6 3h8l4 4v9H6z"/>
		<path d="M14 3v4h4"/>
		<path d="M9 11h6M9 14h4"/>
		<circle cx="9" cy="19" r="1.6"/>
		<circle cx="16" cy="19" r="1.6"/>
	</symbol>

	<!-- weighbridge: platform scale -->
	<symbol viewBox="0 0 24 24" id="icon-rmc-weighbridge" fill="none" stroke="#EA580C" stroke-width="1.6" stroke-linecap="round" stroke-linejoin="round">
		<path d="M3 15h18v3H3z"/>
		<path d="M6 15v-2h12v2"/>
		<path d="M8 13V8h8v5"/>
		<path d="M12 8V5"/>
		<path d="M5 21h14"/>
	</symbol>

	<!-- material inward: truck with an arrow in -->
	<symbol viewBox="0 0 24 24" id="icon-rmc-inward" fill="none" stroke="#0D9488" stroke-width="1.6" stroke-linecap="round" stroke-linejoin="round">
		<path d="M3 16V8h9v8"/>
		<path d="M12 11h4l3 3v2h-7"/>
		<circle cx="7" cy="18" r="1.8"/>
		<circle cx="16" cy="18" r="1.8"/>
		<path d="M7.5 4v4M5.5 6.5 7.5 8.5 9.5 6.5"/>
	</symbol>

	<!-- dispatch: truck with an arrow out -->
	<symbol viewBox="0 0 24 24" id="icon-rmc-dispatch" fill="none" stroke="#DB2777" stroke-width="1.6" stroke-linecap="round" stroke-linejoin="round">
		<path d="M3 16V8h9v8"/>
		<path d="M12 11h4l3 3v2h-7"/>
		<circle cx="7" cy="18" r="1.8"/>
		<circle cx="16" cy="18" r="1.8"/>
		<path d="M7.5 8V4M5.5 5.5 7.5 3.5 9.5 5.5"/>
	</symbol>

	<!-- construction site: crane over a building -->
	<symbol viewBox="0 0 24 24" id="icon-rmc-site" fill="none" stroke="#CA8A04" stroke-width="1.6" stroke-linecap="round" stroke-linejoin="round">
		<path d="M4 21V7l6-3v17"/>
		<path d="M10 10h9v11h-9"/>
		<path d="M13 13h1M16 13h1M13 17h1M16 17h1"/>
		<path d="M4 7h6"/>
	</symbol>

	<!-- customer: office building -->
	<symbol viewBox="0 0 24 24" id="icon-rmc-customer" fill="none" stroke="#4F46E5" stroke-width="1.6" stroke-linecap="round" stroke-linejoin="round">
		<path d="M5 21V4h9v17"/>
		<path d="M14 9h5v12h-5"/>
		<path d="M8 8h3M8 12h3M8 16h3M16.5 13h.01M16.5 17h.01"/>
	</symbol>

	<!-- driver -->
	<symbol viewBox="0 0 24 24" id="icon-rmc-driver" fill="none" stroke="#0369A1" stroke-width="1.6" stroke-linecap="round" stroke-linejoin="round">
		<circle cx="12" cy="7" r="3.2"/>
		<path d="M5 21v-1.5A5.5 5.5 0 0 1 10.5 14h3a5.5 5.5 0 0 1 5.5 5.5V21"/>
		<path d="M8.5 5.5h7"/>
	</symbol>

	<!-- cube test: test cube under load -->
	<symbol viewBox="0 0 24 24" id="icon-rmc-cube-test" fill="none" stroke="#DC2626" stroke-width="1.6" stroke-linecap="round" stroke-linejoin="round">
		<path d="M7 10l5-2.5L17 10v6l-5 2.5L7 16z"/>
		<path d="M7 10l5 2.5 5-2.5M12 12.5V19"/>
		<path d="M12 2v3M9 4l3-2 3 2"/>
	</symbol>

	<!-- slump cone -->
	<symbol viewBox="0 0 24 24" id="icon-rmc-slump" fill="none" stroke="#F59E0B" stroke-width="1.6" stroke-linecap="round" stroke-linejoin="round">
		<path d="M9 5h6l3 14H6z"/>
		<path d="M9 5h6"/>
		<path d="M7.5 14h9"/>
	</symbol>

	<!-- quality pass: shield with a tick -->
	<symbol viewBox="0 0 24 24" id="icon-rmc-quality" fill="none" stroke="#15803D" stroke-width="1.6" stroke-linecap="round" stroke-linejoin="round">
		<path d="M12 3l7 3v6c0 4.4-3 8-7 9-4-1-7-4.6-7-9V6z"/>
		<path d="M9 12l2.2 2.2L15.5 10"/>
	</symbol>

	<!-- breakdown: warning triangle with a bolt -->
	<symbol viewBox="0 0 24 24" id="icon-rmc-breakdown" fill="none" stroke="#E11D48" stroke-width="1.6" stroke-linecap="round" stroke-linejoin="round">
		<path d="M12 3 22 20H2z"/>
		<path d="M12.8 9 10.5 13.5h3L11.2 17.5"/>
	</symbol>

	<!-- maintenance: spanner -->
	<symbol viewBox="0 0 24 24" id="icon-rmc-maintenance" fill="none" stroke="#0F172A" stroke-width="1.6" stroke-linecap="round" stroke-linejoin="round">
		<path d="M15.5 3.5a5 5 0 0 0-5.9 6.3L3.6 15.8a2 2 0 1 0 2.8 2.8l6-6a5 5 0 0 0 6.3-5.9L16 9.5 14 8.4 12.9 6z"/>
	</symbol>

	<!-- power: bolt in a meter -->
	<symbol viewBox="0 0 24 24" id="icon-rmc-power" fill="none" stroke="#EAB308" stroke-width="1.6" stroke-linecap="round" stroke-linejoin="round">
		<path d="M5 3h14v14H5z"/>
		<path d="M13 6l-4 6h3l-1 5 4-6h-3z"/>
		<path d="M9 21h6M9 17v4M15 17v4"/>
	</symbol>

	<!-- plant status: gauge -->
	<symbol viewBox="0 0 24 24" id="icon-rmc-status" fill="none" stroke="#2DD4BF" stroke-width="1.6" stroke-linecap="round" stroke-linejoin="round">
		<path d="M4 18a8 8 0 1 1 16 0"/>
		<path d="M12 18l4.5-4.5"/>
		<path d="M4 18h3M17 18h3"/>
	</symbol>

	<!-- stock / silo levels: stacked boxes -->
	<symbol viewBox="0 0 24 24" id="icon-rmc-stock" fill="none" stroke="#7C2D12" stroke-width="1.6" stroke-linecap="round" stroke-linejoin="round">
		<path d="M3 14h8v7H3zM13 14h8v7h-8zM8 3h8v7H8z"/>
		<path d="M6 17h2M16 17h2M11 6h2"/>
	</symbol>

	<!-- reports: bar chart -->
	<symbol viewBox="0 0 24 24" id="icon-rmc-report" fill="none" stroke="#6D28D9" stroke-width="1.6" stroke-linecap="round" stroke-linejoin="round">
		<path d="M4 21V4"/>
		<path d="M4 21h17"/>
		<path d="M8 17V11M13 17V6M18 17v-8"/>
	</symbol>

	<!-- dashboard grid -->
	<symbol viewBox="0 0 24 24" id="icon-rmc-dashboard" fill="none" stroke="#1E40AF" stroke-width="1.6" stroke-linecap="round" stroke-linejoin="round">
		<path d="M3 3h8v6H3zM13 3h8v10h-8zM3 11h8v10H3zM13 15h8v6h-8z"/>
	</symbol>

	<!-- cycle time: truck clock -->
	<symbol viewBox="0 0 24 24" id="icon-rmc-cycle" fill="none" stroke="#0284C7" stroke-width="1.6" stroke-linecap="round" stroke-linejoin="round">
		<circle cx="12" cy="12" r="8.5"/>
		<path d="M12 7v5l3.5 2"/>
		<path d="M20 4l-1.5 3.5L15 6"/>
	</symbol>

	<!-- settings -->
	<symbol viewBox="0 0 24 24" id="icon-rmc-settings" fill="none" stroke="#334155" stroke-width="1.6" stroke-linecap="round" stroke-linejoin="round">
		<circle cx="12" cy="12" r="3"/>
		<path d="M12 2v3M12 19v3M4.2 4.2l2.1 2.1M17.7 17.7l2.1 2.1M2 12h3M19 12h3M4.2 19.8l2.1-2.1M17.7 6.3l2.1-2.1"/>
	</symbol>

	<!-- invoice / money -->
	<symbol viewBox="0 0 24 24" id="icon-rmc-invoice" fill="none" stroke="#047857" stroke-width="1.6" stroke-linecap="round" stroke-linejoin="round">
		<path d="M6 3h12v18l-3-2-3 2-3-2-3 2z"/>
		<path d="M9 8h6M9 12h6M9 16h3"/>
	</symbol>

	<!-- supplier truck -->
	<symbol viewBox="0 0 24 24" id="icon-rmc-supplier" fill="none" stroke="#B91C1C" stroke-width="1.6" stroke-linecap="round" stroke-linejoin="round">
		<path d="M2 6h11v10H2z"/>
		<path d="M13 9h4l4 4v3h-8"/>
		<circle cx="6" cy="18" r="1.8"/>
		<circle cx="17" cy="18" r="1.8"/>
	</symbol>

	<!-- guide / book -->
	<symbol viewBox="0 0 24 24" id="icon-rmc-guide" fill="none" stroke="#BE185D" stroke-width="1.6" stroke-linecap="round" stroke-linejoin="round">
		<path d="M4 4.5A2.5 2.5 0 0 1 6.5 2H20v16H6.5A2.5 2.5 0 0 0 4 20.5z"/>
		<path d="M4 4.5v16A2.5 2.5 0 0 0 6.5 23H20v-5"/>
		<path d="M8 7h8M8 11h6"/>
	</symbol>

	<!-- PLC / live signal: a waveform on a controller face -->
	<symbol viewBox="0 0 24 24" id="icon-rmc-plc" fill="none" stroke="#0EA5E9" stroke-width="1.6" stroke-linecap="round" stroke-linejoin="round">
		<rect x="2.5" y="5" width="19" height="14" rx="2"/>
		<path d="M5.5 13l2.5-3.5L10.5 15l2-6 2 4.5 1.5-2h2.5"/>
		<path d="M6 2.5v2.5M12 2.5v2.5M18 2.5v2.5"/>
	</symbol>

	<!-- public web page -->
	<symbol viewBox="0 0 24 24" id="icon-rmc-web" fill="none" stroke="#2563EB" stroke-width="1.6" stroke-linecap="round" stroke-linejoin="round">
		<circle cx="12" cy="12" r="9"/>
		<path d="M3 12h18"/>
		<path d="M12 3c2.6 2.6 4 5.7 4 9s-1.4 6.4-4 9c-2.6-2.6-4-5.7-4-9s1.4-6.4 4-9z"/>
	</symbol>

	<!-- analogue gauge -->
	<symbol viewBox="0 0 24 24" id="icon-rmc-gauge" fill="none" stroke="#7C3AED" stroke-width="1.6" stroke-linecap="round" stroke-linejoin="round">
		<path d="M3.5 17a9 9 0 1 1 17 0"/>
		<path d="M12 17l5-5"/>
		<circle cx="12" cy="17" r="1.4"/>
		<path d="M3.5 17h2M18.5 17h2M12 6.5V8"/>
	</symbol>

	<!-- alarm bell -->
	<symbol viewBox="0 0 24 24" id="icon-rmc-alarm" fill="none" stroke="#DC2626" stroke-width="1.6" stroke-linecap="round" stroke-linejoin="round">
		<path d="M6 9a6 6 0 1 1 12 0c0 4 1.5 5.5 2 6H4c.5-.5 2-2 2-6z"/>
		<path d="M10 19a2 2 0 0 0 4 0"/>
	</symbol>

</svg>
